<?xml version="1.0" encoding="UTF-8" standalone="no"?>
<svg
   version="1.1"
   viewBox="-5 -10 93.165136 91.668717"
   id="svg59"
   width="93.165138"
   height="91.668716"
   xmlns="http://www.w3.org/2000/svg"
   xmlns:svg="http://www.w3.org/2000/svg">
  <defs
     id="defs63" />
  <path
     d="m 42.078576,14.317214 c -5.707,0 -11.18,2.2656 -15.219,6.3008 -4.0352,4.0391 -6.3008,9.5117 -6.3008,15.219 0,5.7073 2.2656,11.18 6.3008,15.219 4.0391,4.0352 9.5117,6.3008 15.219,6.3008 5.7073,0 11.18,-2.2656 15.219,-6.3008 4.0352,-4.0391 6.3008,-9.5117 6.3008,-15.219 -0.0039,-5.707 -2.2734,-11.176 -6.3086,-15.211 -4.0352,-4.0352 -9.5039,-6.3047 -15.211,-6.3086 z m 0,41.84 c -5.3906,0 -10.559,-2.1406 -14.367,-5.9531 -3.8125,-3.8086 -5.9531,-8.9766 -5.9531,-14.367 0,-5.3904 2.1406,-10.559 5.9531,-14.367 3.8086,-3.8125 8.9766,-5.9531 14.367,-5.9531 5.3904,0 10.559,2.1406 14.367,5.9531 3.8125,3.8086 5.9531,8.9766 5.9531,14.367 -0.0078,5.3867 -2.1523,10.551 -5.9609,14.359 -3.8086,3.808 -8.9727,5.9531 -14.359,5.9609 z m -7.8203,-33.32 c 0.65234,-0.92969 1.6289,-1.5859 2.7422,-1.8281 1.4727,-0.23438 2.9766,0.15234 4.1562,1.0664 0.27734,0.1875 0.35156,0.5625 0.16797,0.83594 -0.1875,0.27734 -0.55859,0.35156 -0.83594,0.16406 -0.91406,-0.73047 -2.0898,-1.0547 -3.25,-0.89844 -0.80469,0.17578 -1.5156,0.64062 -2,1.3086 -0.11328,0.17187 -0.30469,0.27344 -0.51172,0.27344 -0.10938,-0.0039 -0.22266,-0.03516 -0.32031,-0.09375 -0.26562,-0.1875 -0.33203,-0.55859 -0.14844,-0.82812 z m 10.73,2.8789 c 0.64453,-0.94531 1.625,-1.6172 2.7383,-1.8789 1.4766,-0.23047 2.9844,0.16016 4.1602,1.0781 0.13281,0.08984 0.22656,0.22656 0.25781,0.38281 0.02734,0.15625 -0.0039,0.32031 -0.09766,0.44922 -0.1875,0.26562 -0.55469,0.33984 -0.82812,0.16016 -0.91406,-0.72656 -2.082,-1.0508 -3.2422,-0.89844 -0.80469,0.17578 -1.5156,0.64062 -2,1.3086 -0.10938,0.17188 -0.30469,0.27344 -0.50781,0.26953 -0.11328,0 -0.22266,-0.03125 -0.32031,-0.08984 -0.26172,-0.18359 -0.33203,-0.53906 -0.16016,-0.80859 z m 13,6.6992 c 0.27734,0.1875 0.35156,0.5625 0.16406,0.83594 -0.18359,0.27734 -0.55859,0.35156 -0.83594,0.16406 -0.91406,-0.71875 -2.082,-1.043 -3.2383,-0.89844 -0.80469,0.17969 -1.5195,0.64844 -2,1.3203 -0.11328,0.17188 -0.30469,0.27344 -0.51172,0.26953 -0.10938,0 -0.22266,-0.03125 -0.31641,-0.08984 -0.13672,-0.08594 -0.23047,-0.22266 -0.26562,-0.37891 -0.03125,-0.15234 -0.0039,-0.31641 0.08203,-0.44922 0.65234,-0.93359 1.6328,-1.5859 2.7422,-1.832 1.4609,-0.23828 2.957,0.13672 4.1406,1.0312 z m -11.121,-0.82031 v 0.0039 c 0.27734,0.18359 0.35156,0.55859 0.16406,0.83203 -0.18359,0.27734 -0.55859,0.35156 -0.83203,0.16797 -0.91016,-0.72656 -2.0781,-1.0508 -3.2305,-0.90234 -0.80078,0.18359 -1.5117,0.64844 -2,1.3125 -0.10938,0.16797 -0.29688,0.27344 -0.5,0.26953 -0.11719,0 -0.23047,-0.03125 -0.33203,-0.08984 -0.13281,-0.08594 -0.22656,-0.22266 -0.26172,-0.37891 -0.03125,-0.15625 -0.0039,-0.32031 0.08203,-0.45312 0.65234,-0.92969 1.6289,-1.5859 2.7422,-1.8281 1.4609,-0.23438 2.9531,0.14453 4.1289,1.0391 z m -11,-2.1484 c 0.27344,0.1875 0.34375,0.55859 0.16016,0.83203 -0.08594,0.13281 -0.22266,0.22266 -0.37891,0.25391 -0.15625,0.03125 -0.32031,-0.0039 -0.44922,-0.09375 -0.91406,-0.72656 -2.0859,-1.0469 -3.2422,-0.89062 -0.80469,0.17187 -1.5195,0.63672 -2,1.3086 -0.11719,0.16797 -0.30469,0.26953 -0.50781,0.26953 -0.11719,0 -0.22656,-0.03516 -0.32031,-0.09766 -0.13281,-0.08594 -0.22656,-0.21875 -0.26172,-0.375 -0.03516,-0.15234 -0.0039,-0.3125 0.08203,-0.44531 0.65234,-0.93359 1.6289,-1.5859 2.7383,-1.832 1.4648,-0.23437 2.9609,0.14063 4.1406,1.0391 z m -7.5195,8.7695 c -0.10938,0.17578 -0.30469,0.28125 -0.50781,0.28125 -0.11719,0 -0.22656,-0.03516 -0.32031,-0.10156 -0.13672,-0.08594 -0.23047,-0.21875 -0.26172,-0.375 -0.03516,-0.15625 -0.0078,-0.32031 0.08203,-0.45312 0.64844,-0.94141 1.625,-1.6016 2.7383,-1.8594 1.4688,-0.19922 2.957,0.20703 4.1211,1.1289 0.26562,0.1875 0.33594,0.55469 0.16016,0.82812 -0.08984,0.13672 -0.22656,0.22656 -0.38281,0.25781 -0.15625,0.02734 -0.31641,-0.0039 -0.44922,-0.09766 -0.91797,-0.72266 -2.0898,-1.043 -3.25,-0.88672 -0.78516,0.16797 -1.4844,0.60938 -1.9688,1.25 z m 14.871,2.3008 c 0.26562,0.1875 0.33594,0.55469 0.16016,0.83203 -0.08984,0.13281 -0.23047,0.22266 -0.38672,0.25391 -0.16016,0.03125 -0.32031,-0.0039 -0.45312,-0.09375 -0.91797,-0.72656 -2.0898,-1.0469 -3.25,-0.89062 -0.80078,0.17969 -1.5117,0.64062 -2,1.2969 -0.10547,0.17578 -0.29688,0.28125 -0.5,0.28125 -0.11719,0 -0.23438,-0.03516 -0.33203,-0.09766 -0.26953,-0.1875 -0.34766,-0.55078 -0.17969,-0.83203 0.66016,-0.92578 1.6328,-1.5781 2.7422,-1.8281 1.4688,-0.23437 2.9727,0.14453 4.1602,1.0469 z m 5.3203,-0.67969 c -0.10938,0.17188 -0.29688,0.27734 -0.5,0.28125 -0.11719,-0.0039 -0.23047,-0.03906 -0.33203,-0.10156 -0.13281,-0.08594 -0.22656,-0.22266 -0.26172,-0.37891 -0.03125,-0.15234 -0.0039,-0.31641 0.08203,-0.44922 0.65625,-0.92969 1.6328,-1.582 2.7422,-1.832 1.4766,-0.22656 2.9805,0.16406 4.1602,1.082 0.27344,0.18359 0.34766,0.55859 0.16406,0.83203 -0.1875,0.27734 -0.55859,0.35156 -0.83594,0.16797 -0.91406,-0.72656 -2.082,-1.0469 -3.2383,-0.89062 -0.79688,0.17578 -1.5,0.63281 -1.9805,1.2891 z m 6.8594,4.6289 c 0.26563,0.19141 0.33594,0.55469 0.16016,0.83203 -0.18359,0.27344 -0.55469,0.35156 -0.83203,0.16797 -0.91797,-0.73047 -2.0938,-1.0547 -3.2578,-0.89844 -0.80469,0.17578 -1.5195,0.64062 -2,1.3086 -0.1875,0.26953 -0.55078,0.34766 -0.83203,0.17969 -0.13281,-0.08594 -0.22656,-0.22266 -0.26172,-0.375 -0.03125,-0.15625 -0.0039,-0.32031 0.08203,-0.45312 0.65234,-0.92969 1.625,-1.582 2.7305,-1.832 1.4922,-0.24609 3.0156,0.14062 4.2109,1.0625 z m -12.23,2.8398 c 0.27734,0.1875 0.35156,0.55859 0.16406,0.83594 -0.18359,0.27734 -0.55859,0.35156 -0.83203,0.16406 -0.92188,-0.72266 -2.0938,-1.043 -3.25,-0.89062 -0.80078,0.18359 -1.5117,0.64453 -2,1.3008 -0.10938,0.17578 -0.29688,0.28125 -0.5,0.28125 -0.12109,0 -0.23438,-0.03516 -0.33203,-0.10156 -0.26953,-0.18359 -0.34766,-0.54688 -0.17969,-0.82812 0.65625,-0.92969 1.6328,-1.582 2.7383,-1.832 1.4844,-0.23828 3.0039,0.14844 4.1914,1.0703 z m -8.0703,-2 c 0.27734,0.1875 0.35156,0.55859 0.16406,0.83594 -0.18359,0.27734 -0.55859,0.35156 -0.83203,0.16406 -0.91406,-0.72656 -2.0859,-1.0508 -3.2422,-0.89844 -0.80469,0.17188 -1.5195,0.63672 -2,1.3086 -0.11719,0.16797 -0.30469,0.26953 -0.50781,0.26953 -0.11719,0.0039 -0.22656,-0.03125 -0.32031,-0.09766 -0.13281,-0.08594 -0.23047,-0.21875 -0.26172,-0.375 -0.03516,-0.15234 -0.0039,-0.3125 0.08203,-0.44531 0.64844,-0.93359 1.6289,-1.5859 2.7383,-1.832 1.4727,-0.23828 2.9766,0.13672 4.1602,1.043 z m 51.98,-9.4688 c -0.0039,-3.6562 -2.25,-6.9375 -5.6602,-8.2617 2.4062,-2.3984 3.2266,-5.9648 2.1094,-9.1758 -1.1172,-3.207 -3.9727,-5.4961 -7.3477,-5.8828 0.86719,-3.2772993 -0.22266,-6.7655993 -2.8047,-8.9647993 -2.582,-2.2031 -6.1953,-2.73049997 -9.2969,-1.3555 0.02734,-3.4061999 -1.9062,-6.5273 -4.9688,-8.0195 -3.0625,-1.4961 -6.7109,-1.0977 -9.3828,1.0195 -1.707,-2.9375 -4.9531,-4.6367 -8.3438,-4.3633 -3.3906,0.26953 -6.3242,2.4609 -7.543,5.6328 -2.4023,-2.4219 -5.9844,-3.2461 -9.2031,-2.1211 -3.2227,1.125 -5.5078,4 -5.8789,7.3906 -3.2773,-0.86718997 -6.7656,0.22266 -8.9647998,2.8047 -2.2031,2.582 -2.7305,6.1952993 -1.3555,9.2968993 -3.6523,-0.0039 -6.9336,2.2344 -8.25780003,5.6406 -1.1211,2.9336 -0.62109,6.2383 1.32030003,8.7109 -2.9414,1.707 -4.6367,4.9531 -4.3672,8.3438 0.26953,3.3906 2.46089997,6.3242 5.6366998,7.543 -2.41799983,2.3945 -3.24999983,5.9648 -2.14059983,9.1797 1.11330003,3.2148 3.96880003,5.5117 7.34770003,5.9023 -0.86719,3.2773 0.22266,6.7656 2.8046998,8.9648 2.582,2.2031 6.1953,2.7305 9.2969,1.3555 -0.02734,3.4062 1.9062,6.5273 4.9688,8.0195 3.0625,1.4961 6.7109,1.0977 9.3828,-1.0195 1.707,2.9375 4.9531,4.6367 8.3438,4.3633 3.3906,-0.26953 6.3242,-2.4609 7.543,-5.6328 2.4023,2.4219 5.9844,3.2461 9.2031,2.1211 3.2227,-1.125 5.5078,-4 5.8789,-7.3906 3.2773,0.86719 6.7656,-0.22266 8.9648,-2.8047 2.2031,-2.582 2.7305,-6.1953 1.3555,-9.2969 3.6523,0.0039 6.9336,-2.2344 8.2578,-5.6406 1.1211,-2.9336 0.62109,-6.2383 -1.3203,-8.7109 2.7266,-1.5859 4.4062,-4.4961 4.4219,-7.6484 z m -4.1914,15.898 c -1.2695,3.2695 -4.5977,5.2578 -8.0781,4.8203 l -9.4102,-7.8203 c -0.25781,-0.21094 -0.63672,-0.17578 -0.85156,0.08203 -0.21094,0.25781 -0.17578,0.63672 0.08203,0.84766 l 9.5703,7.9414 h 0.07813 c 1.6133,2.7734 1.3125,6.2578 -0.74609,8.7148 -2.0625,2.4609 -5.4414,3.3594 -8.4531,2.2539 h -0.05859 l -7,-10 c -0.19531,-0.26953 -0.56641,-0.33594 -0.83984,-0.14844 -0.27344,0.19141 -0.33984,0.56641 -0.15234,0.83984 l 7,10.07 c 0.04297,0.05859 0.09766,0.10547 0.16016,0.14062 -0.20703,3.1445 -2.3281,5.8398 -5.3359,6.7773 -3.0117,0.9375 -6.2891,-0.07422 -8.2422,-2.5469 l -2.0312,-11.602 c -0.01563,-0.16406 -0.10156,-0.31641 -0.23047,-0.41797 -0.13281,-0.10156 -0.30078,-0.14453 -0.46875,-0.11719 -0.16406,0.02734 -0.30859,0.125 -0.39844,0.26172 -0.09375,0.14062 -0.12109,0.3125 -0.08203,0.47266 l 2.0586,11.648 v 0.0039 c -0.8125,3.0859 -3.4609,5.3359 -6.6367,5.6484 -3.1758,0.30859 -6.207,-1.3906 -7.6016,-4.2578 l 3,-12.762 c 0.07813,-0.16406 0.07813,-0.35547 0,-0.51953 -0.07813,-0.16406 -0.22656,-0.28516 -0.40234,-0.32422 -0.17578,-0.04297 -0.36328,-0.0039 -0.50781,0.10938 -0.14453,0.113286 -0.22656,0.28125 -0.23047,0.46484 l -3,12.891 c -2.3594,2.1562 -5.8086,2.6133 -8.6484,1.1445 -2.8398,-1.4648 -4.4648,-4.543 -4.0703,-7.7148 l 5.7812,-9.3789 h -0.0039 c 0.17188,-0.28516 0.08203,-0.64844 -0.19922,-0.82031 -0.13281,-0.08594 -0.29688,-0.11328 -0.44922,-0.07812 -0.15234,0.03516 -0.28906,0.13281 -0.37109,0.26562 l -5.7812,9.3789 0.0039,0.0039 c -2.7031,1.6016 -6.1172,1.3789 -8.5859,-0.57031 -2.4687998,-1.9453 -3.4843998,-5.207 -2.5546998,-8.2109 0.05078,-0.01953 0.09766,-0.04687 0.14062,-0.08203 l 10.3979998,-8.4297 c 0.25391,-0.21094 0.28906,-0.58594 0.07813,-0.83984 -0.09766,-0.125 -0.24219,-0.20312 -0.39844,-0.22266 -0.16016,-0.01563 -0.31641,0.03125 -0.44141,0.13281 l -10.1599998,8.2422 c -3.2344,-0.08203 -6.0703002,-2.1914 -7.0781,-5.2656 -1.00780003,-3.0781 0.027344,-6.457 2.5898,-8.4375 0.17969,-0.14062 0.26172,-0.37109 0.21875,-0.59766 -0.04687,-0.22266 -0.21875,-0.39844 -0.4375002,-0.44922 -3.14449983,-0.78125 -5.4569998,-3.457 -5.7733998,-6.6797 -0.31641,-3.2227 1.42969997,-6.2969 4.3632998,-7.6719 0.17188,-0.08203 0.29297,-0.24219 0.32812,-0.42969 0.03125,-0.1875 -0.02344,-0.37891 -0.14844,-0.51953 -2.21089983,-2.3242 -2.73439983,-5.7812 -1.3124998,-8.6562 1.4257998,-2.875 4.4922,-4.5547 7.6836,-4.2031 l 9.2382998,7.6719 v -0.0039 c 0.10547,0.08984 0.24219,0.13281 0.37891,0.12891 0.25781,-0.0039 0.48438,-0.16797 0.5625,-0.41406 0.07813,-0.24219 -0.0078,-0.51172 -0.21094,-0.66406 l -9.2811998,-7.6992 c -1.6289,-2.7422 -1.375,-6.2069993 0.6328098,-8.6835993 2.0117,-2.4766 5.3516,-3.4375 8.3672,-2.4062 l 6.8789,9.8983993 c 0.11328,0.16016 0.29688,0.25 0.49219,0.25 0.12109,0.0039 0.23828,-0.03125 0.33984,-0.09766 0.26953,-0.19531 0.33594,-0.56641 0.14844,-0.83984 l -6.8711,-9.8905993 h 0.0039 c 0.14063,-3.17969993 2.2422,-5.9336 5.2656,-6.9141 3.0234,-0.98047 6.3398,0.015624 8.3242,2.5039 l 2,11.211 v -0.0039 c 0.04687,0.2890597 0.29688,0.4999997 0.58984,0.4999997 h 0.10156 -0.0039 c 0.16016,-0.02344 0.30078,-0.11328 0.39062,-0.2460897 0.09375,-0.13281 0.12891,-0.29297 0.10156,-0.45312 l -2,-11.23 c 0.80469,-3.0742 3.4336,-5.3281 6.5938,-5.6562 3.1641,-0.32422 6.1953,1.3438 7.6133,4.1875 l -3,12.672 c -0.06641,0.32031 0.13281,0.6406297 0.45312,0.7187497 h 0.14062 c 0.27344,0 0.51562,-0.19141 0.57812,-0.4609397 l 3,-12.711 c 2.1523,-1.9219 5.1992,-2.4844 7.8984,-1.457 3.2383,1.2617 5.2188,4.54690007 4.8203,8 l -5.7188,9.2577993 c -0.16797,0.28125 -0.08203,0.64844 0.19922,0.82031 0.09375,0.05859 0.20312,0.08984 0.3125,0.08984 0.20703,0 0.39844,-0.10547 0.50781,-0.28125 l 5.6914,-9.2382993 c 2.7344,-1.5625 6.1523,-1.2773 8.5938,0.71875 2.4414,1.9961 3.3984,5.2890997 2.4062,8.2811993 l -10.18,8.3516 c -0.19531,0.16016 -0.26562,0.42578 -0.17969,0.66016 0.08203,0.23828 0.30859,0.39453 0.55859,0.39844 0.13672,0 0.26953,-0.04687 0.37891,-0.12891 l 10.199,-8.2812 c 3.1992,0.15625 5.957,2.293 6.9141,5.3438 0.95703,3.0547 -0.08984,6.3828 -2.6211,8.3359 -0.17969,0.14453 -0.26562,0.375 -0.22266,0.60156 0.05078,0.22266 0.21875,0.39453 0.44141,0.44922 3.1445,0.77734 5.457,3.4531 5.7734,6.6758 0.31641,3.2227 -1.4336,6.2969 -4.3633,7.6758 -0.17188,0.08203 -0.29297,0.24219 -0.33203,0.42969 -0.03125,0.1875 0.02344,0.37891 0.15234,0.51953 2.0195,2.1523 2.6328,5.2695 1.5781,8.0273 z"
     id="path53"
     style="fill:#000000;fill-opacity:1" />
  <path
     style="fill:#fff080;fill-opacity:1;stroke:#c8beb7;stroke-width:0.0795514"
     d="m 40.625663,79.454554 c -1.531826,-0.34795 -2.854515,-1.0543 -3.863355,-2.06314 -0.517972,-0.51797 -1.135992,-1.33857 -1.354726,-1.798784 -0.133109,-0.28006 -0.131008,-0.290291 1.392886,-6.782293 0.973071,-4.145414 1.508247,-6.573326 1.476668,-6.699145 -0.02724,-0.108537 -0.140898,-0.257206 -0.252571,-0.330377 -0.275706,-0.18065 -0.743387,-0.06907 -0.882636,0.210577 -0.05447,0.109383 -0.76767,3.098527 -1.584896,6.642542 -1.665189,7.22132 -1.451631,6.585147 -2.431204,7.24237 -2.054811,1.37863 -4.727254,1.65794 -6.98751,0.73029 -1.038614,-0.42627 -1.663154,-0.8458 -2.512985,-1.688098 -1.528335,-1.514786 -2.2601,-3.261266 -2.2601,-5.394113 v -0.80233 l 2.921039,-4.737593 c 1.906132,-3.091527 2.932032,-4.829121 2.952677,-5.001023 0.04488,-0.373679 -0.22749,-0.65141 -0.638829,-0.65141 -0.269761,0 -0.334033,0.04002 -0.542997,0.338093 -0.130361,0.185952 -1.481003,2.356783 -3.001427,4.82407 l -2.764407,4.485977 -0.437533,0.22567 c -1.152624,0.594503 -2.252937,0.820741 -3.718361,0.764542 -1.727836,-0.06626 -3.058841,-0.55817 -4.387512,-1.621521 -1.9920268,-1.594242 -3.1160458,-4.301219 -2.7920238,-6.724036 0.182023,-1.361051 -0.349835,-0.822727 5.4509868,-5.517269 2.842664,-2.300537 5.266925,-4.288731 5.387247,-4.41821 0.268523,-0.28896 0.278001,-0.552926 0.0302,-0.841016 -0.137779,-0.160178 -0.262222,-0.219225 -0.462026,-0.219225 -0.24275,0 -0.85218,0.469598 -5.426998,4.181777 l -5.1535398,4.181777 -0.370676,-0.03474 C 6.6157402,57.789667 4.9328432,57.015672 3.699984,55.791207 2.694674,54.792742 1.9927232,53.578172 1.6282712,52.206566 c -0.144836,-0.545087 -0.180165,-0.892117 -0.182216,-1.789907 -0.003,-1.314397 0.166577,-2.131775 0.6613078,-3.187506 0.461894,-0.985656 0.832691,-1.502389 1.694342,-2.361191 0.6748872,-0.672657 0.7781852,-0.810938 0.7781852,-1.041727 0,-0.355456 -0.162604,-0.485263 -0.9158972,-0.731163 -2.5195418,-0.822461 -4.35887383,-2.775977 -5.0982678,-5.414765 -0.201442,-0.718915 -0.241079,-2.479393 -0.07442,-3.305223 0.435576,-2.158336 1.84011297,-4.080751 3.7735458,-5.164921 0.706782,-0.396326 0.803561,-0.496049 0.803561,-0.828004 0,-0.181517 -0.106969,-0.3721 -0.404475,-0.720646 -2.96845083,-3.477709 -2.22907483,-8.748792 1.582644,-11.282817 1.1857412,-0.78828 2.3773852,-1.163522 3.8816532,-1.222314 l 1.042476,-0.04074 4.4863468,3.722419 c 2.467491,2.04733 4.587539,3.805932 4.711217,3.908004 0.376266,0.310532 0.881054,0.237438 1.044483,-0.151244 0.151557,-0.360449 0.05887,-0.59542 -0.384458,-0.974594 -0.584602,-0.50001 -7.008855,-5.824823 -8.111455,-6.723269 -0.87212,-0.710642 -0.9465788,-0.794324 -1.2477918,-1.402349 -1.076728,-2.173471 -0.958673,-4.9866993 0.296684,-7.0698763 1.7598508,-2.920349 5.1228768,-4.322439 8.3910548,-3.49834 l 0.531593,0.134046 3.404805,4.903979 c 1.872642,2.6971873 3.484352,4.9845243 3.581576,5.0829693 0.254412,0.257605 0.678911,0.24307 0.894193,-0.03062 0.09068,-0.115283 0.164877,-0.307778 0.164877,-0.427766 0,-0.158146 -0.954782,-1.592973 -3.470809,-5.2158623 l -3.47081,-4.997703 0.04849,-0.560775 c 0.155028,-1.79281193 1.170622,-3.68319 2.625234,-4.886488 2.358129,-1.950713 5.483974,-2.336604 8.200009,-1.012305 0.853136,0.415977 1.593926,0.960011 2.188536,1.607253 l 0.431008,0.469159 1.012675,5.685778 c 0.974668,5.47239 1.020578,5.692576 1.22326,5.8669157 0.416538,0.358291 0.997716,0.101039 0.996657,-0.4411577 -3.18e-4,-0.1609 -0.446234,-2.791894 -0.990935,-5.846654 l -0.990363,-5.55411 0.238911,-0.660262 c 0.371297,-1.02613 0.939238,-1.884814 1.81864,-2.749651 0.81435,-0.800862 1.470119,-1.23834 2.469963,-1.64777 2.796872,-1.1453 5.98016,-0.489442 8.162727,1.681779 0.614363,0.611169 1.383389,1.714447 1.383531,1.984871 4.8e-5,0.09283 -0.662217,2.96596807 -1.471701,6.384748 -0.809484,3.418781 -1.47179,6.305514 -1.47179,6.414964 0,0.5337677 0.711706,0.7805387 1.065359,0.3693917 0.131694,-0.1531027 0.507466,-1.6283107 1.678681,-6.5901717 l 1.509005,-6.392912 0.518562,-0.392749 c 0.722503,-0.547211 1.807076,-1.062299 2.746002,-1.304138 0.968106,-0.249355 2.436257,-0.286119 3.341159,-0.08367 2.470272,0.552671 4.308988,2.022623 5.370886,4.29372807 0.476829,1.019808 0.657058,1.83028996 0.666761,2.99841293 l 0.0083,0.994393 -2.832376,4.574206 c -1.557807,2.5158123 -2.876432,4.6580853 -2.930279,4.7606053 -0.330159,0.628601 0.58305,1.212369 1.042163,0.666201 0.102334,-0.121738 1.416085,-2.224879 2.919447,-4.6736443 1.503361,-2.448766 2.817077,-4.529527 2.919369,-4.623913 0.262827,-0.242512 1.372502,-0.654783 2.262611,-0.840615 0.959599,-0.20034 2.340627,-0.159384 3.301384,0.09791 3.204156,0.858073 5.462228,3.635194 5.659344,6.9602247 0.05257,0.8868276 -0.115139,2.1101436 -0.352497,2.5711466 -0.09177,0.17823 -1.77917,1.609258 -5.18752,4.39935 -2.990609,2.448127 -5.095926,4.226553 -5.160371,4.359123 -0.09211,0.189475 -0.09211,0.258774 0,0.450396 0.137776,0.286634 0.458766,0.470381 0.711004,0.407007 0.106351,-0.02672 2.508996,-1.929486 5.33921,-4.228367 l 5.145845,-4.179784 0.611436,0.08504 c 1.728144,0.240362 3.232548,1.02704 4.475825,2.340479 2.548136,2.691932 2.778158,6.769307 0.549526,9.74085 -0.178498,0.237994 -0.622538,0.719858 -0.986772,1.070808 -0.566398,0.545756 -0.662226,0.675956 -0.662226,0.899768 0,0.36262 0.197853,0.52783 0.880396,0.735147 1.124435,0.341536 2.046627,0.884292 2.949249,1.735782 0.926042,0.873582 1.595873,1.896169 1.992047,3.041142 1.203501,3.478197 -0.314554,7.375375 -3.568565,9.161277 -0.897674,0.492671 -0.952214,0.738928 -0.334068,1.50836 0.759414,0.945281 1.215728,1.799456 1.554657,2.910137 0.194424,0.637124 0.213627,0.817099 0.214781,2.012302 0.001,1.109438 -0.02584,1.411101 -0.173844,1.94901 -0.619419,2.251193 -2.296864,4.191696 -4.369258,5.054435 -1.058369,0.440599 -1.705728,0.573531 -2.844535,0.584109 l -1.034169,0.0096 -4.695896,-3.905729 c -2.582743,-2.148152 -4.773025,-3.947008 -4.867294,-3.997459 -0.250781,-0.134214 -0.451751,-0.112854 -0.688213,0.07315 -0.256425,0.201703 -0.294021,0.706012 -0.06925,0.928955 0.0772,0.07657 1.249584,1.057627 2.605309,2.180131 1.355724,1.122503 3.456293,2.864731 4.667929,3.871617 1.211636,1.006885 2.254272,1.860481 2.316969,1.896879 0.358317,0.208016 0.972532,1.977584 1.078937,3.108445 0.225984,2.401728 -0.625314,4.621141 -2.408772,6.279897 -1.063923,0.989532 -2.569972,1.715765 -4.025398,1.94109 -1.241181,0.192156 -3.365203,-0.09874 -3.776452,-0.517198 -0.08957,-0.09115 -1.693453,-2.354437 -3.564173,-5.029537 -1.87072,-2.675099 -3.457791,-4.910693 -3.526824,-4.967985 -0.194615,-0.161517 -0.646736,-0.128473 -0.836332,0.06112 -0.3963,0.3963 -0.432502,0.333738 3.310988,5.72182 1.911953,2.751913 3.544635,5.077688 3.628183,5.168387 0.144722,0.157113 0.146353,0.196609 0.0345,0.83529 -0.28921,1.651433 -0.980495,2.98512 -2.155335,4.158265 -2.443692,2.440168 -6.303868,2.893418 -9.242168,1.085168 -0.624064,-0.38405 -1.779057,-1.386334 -1.936442,-1.680412 -0.04389,-0.08203 -0.541793,-2.789013 -1.106439,-6.015538 -0.985951,-5.633964 -1.034863,-5.873504 -1.234414,-6.045402 -0.258893,-0.223019 -0.51342,-0.227596 -0.784818,-0.01411 -0.168171,0.132283 -0.208909,0.23057 -0.206078,0.497196 0.0019,0.182776 0.461521,2.909785 1.021288,6.060021 l 1.017759,5.727702 -0.19382,0.55686 c -0.801507,2.302783 -2.753003,4.112973 -5.189915,4.814113 -0.785924,0.22613 -2.654567,0.29169 -3.411723,0.1197 z M 44.162784,57.291559 C 53.616817,56.357574 61.31387,49.415667 63.209542,40.11345 63.529346,38.544143 63.628617,37.266621 63.583427,35.301893 63.527537,32.87195 63.274413,31.346423 62.563068,29.152382 60.444883,22.619147 55.269853,17.451894 48.726442,15.33655 44.14616,13.855844 39.160256,13.947589 34.656956,15.595442 c -2.007559,0.734608 -4.459103,2.111155 -6.087612,3.418206 -0.308862,0.247894 -0.986537,0.863925 -1.505944,1.368957 -5.028459,4.889291 -7.328568,11.74951 -6.289937,18.76013 0.437136,2.950613 1.634694,6.03555 3.360075,8.655636 3.368195,5.114785 9.211461,8.731153 15.210315,9.413584 0.415656,0.04729 0.863132,0.09849 0.994392,0.113794 0.569467,0.06639 3.029041,0.0444 3.824539,-0.03419 z"
     id="path3729" />
  <path
     style="fill:#ffd202;fill-opacity:1;stroke:#c8beb7;stroke-width:0.0795514"
     d="m 40.417797,56.058022 c -0.13126,-0.0183 -0.668232,-0.09061 -1.193271,-0.160696 -7.434135,-0.992388 -13.856111,-6.309372 -16.32416,-13.515357 -1.507991,-4.402895 -1.445098,-9.224677 0.177581,-13.614425 0.453308,-1.22631 1.341565,-2.959459 2.10594,-4.109069 5.148898,-7.743867 14.800284,-11.008109 23.553251,-7.966058 5.048207,1.754479 9.144003,5.397485 11.531372,10.256578 0.929221,1.891275 1.465892,3.562002 1.842333,5.735429 0.240912,1.390931 0.261695,4.667196 0.03845,6.061812 -0.555355,3.469357 -1.924194,6.685396 -4.016971,9.437731 -0.740942,0.974456 -2.592967,2.850763 -3.514602,3.560682 -2.939416,2.264179 -5.981793,3.568297 -9.737005,4.173778 -0.689167,0.111119 -3.938121,0.212743 -4.462921,0.139595 z m -2.85745,-7.591354 c 0.353753,-0.343015 0.754337,-0.641714 1.040192,-0.775627 0.409824,-0.191988 0.559103,-0.217725 1.260398,-0.217305 0.91925,5.57e-4 1.567448,0.182413 2.248279,0.630793 0.226641,0.149262 0.487349,0.295275 0.579351,0.324475 0.361572,0.114759 0.791959,-0.24953 0.791959,-0.67033 0,-0.374533 -0.766615,-0.925522 -1.844227,-1.325501 -0.479805,-0.178089 -0.753518,-0.22271 -1.557645,-0.253922 -0.860687,-0.03341 -1.041726,-0.01659 -1.537536,0.142835 -1.240741,0.398951 -2.57185,1.605046 -2.423548,2.195933 0.07383,0.294171 0.33162,0.506493 0.614951,0.506493 0.204956,0 0.36088,-0.105072 0.827826,-0.557844 z m -8.048831,-2.022567 c 0.329014,-0.340547 0.665677,-0.597098 0.971569,-0.740375 0.428029,-0.200487 0.546395,-0.218928 1.382935,-0.215467 0.801291,0.0033 0.975782,0.02946 1.40582,0.210667 0.270039,0.113785 0.662775,0.325081 0.872748,0.469546 0.658621,0.453142 1.221694,0.292979 1.221694,-0.347505 0,-0.260436 -0.04993,-0.360765 -0.28807,-0.578897 -0.318785,-0.291995 -1.239583,-0.766822 -1.754221,-0.904596 -0.641762,-0.171807 -1.480955,-0.235561 -2.128518,-0.161705 -1.08731,0.12401 -2.287265,0.820663 -2.921405,1.696068 -0.284534,0.392787 -0.291564,0.708316 -0.02179,0.978088 0.329551,0.32955 0.647891,0.226956 1.259241,-0.405824 z m 20.218803,-0.790729 c 0.328847,-0.338698 0.673772,-0.596467 1.037881,-0.775626 0.505316,-0.24864 0.600925,-0.268159 1.302482,-0.265896 0.89424,0.0029 1.510611,0.182764 2.308387,0.673675 0.716643,0.440985 1.119564,0.399076 1.265026,-0.131578 0.09975,-0.363908 -0.04707,-0.63201 -0.516901,-0.943867 -1.310911,-0.870132 -3.01859,-1.148386 -4.389665,-0.715264 -1.123771,0.355 -2.404367,1.447567 -2.404367,2.051338 0,0.3458 0.273418,0.614507 0.625281,0.614507 0.238726,0 0.350956,-0.07376 0.771876,-0.507289 z M 37.607,41.658539 c 0.752803,-0.726441 1.400362,-1.019085 2.252025,-1.017733 0.793271,0.0013 1.553123,0.222029 2.284658,0.663789 0.313611,0.189384 0.632537,0.321635 0.775626,0.321635 0.342504,0 0.561217,-0.245759 0.561217,-0.630619 0,-0.263851 -0.04637,-0.350998 -0.298318,-0.560628 -0.673438,-0.560331 -1.842644,-0.99463 -2.929846,-1.088283 -1.39948,-0.120554 -2.873119,0.505369 -3.783465,1.607016 -0.421228,0.509742 -0.405388,1.048262 0.03619,1.230532 0.299988,0.123825 0.554772,0.0023 1.10191,-0.525709 z m 11.217007,-2.060535 c 0.275764,-0.301731 0.58269,-0.527266 0.994568,-0.730826 0.538104,-0.265946 0.658575,-0.294612 1.24562,-0.296401 0.801672,-0.0024 1.548692,0.214054 2.296237,0.665481 0.595648,0.3597 0.933894,0.40638 1.17774,0.162533 0.225225,-0.225225 0.214794,-0.715706 -0.01989,-0.935147 -0.914178,-0.85481 -2.899947,-1.391716 -4.210741,-1.138488 -1.008618,0.194853 -2.113995,0.892877 -2.704227,1.707668 -0.266103,0.367344 -0.282509,0.589314 -0.06408,0.866998 0.32405,0.411962 0.716728,0.319715 1.284773,-0.301818 z M 28.508695,38.050006 c 0.312358,-0.354857 0.570405,-0.549472 1.028425,-0.775627 0.584189,-0.288451 0.645279,-0.30158 1.37073,-0.294588 0.89496,0.0086 1.500158,0.188084 2.266525,0.672088 0.577796,0.364911 0.847593,0.393711 1.121579,0.119724 0.450975,-0.450975 0.156746,-0.944573 -0.891351,-1.495333 -0.908443,-0.477373 -1.637783,-0.63813 -2.723661,-0.600335 -0.832318,0.02897 -0.976318,0.05686 -1.465194,0.283825 -0.849028,0.394166 -1.760272,1.193594 -1.960329,1.719785 -0.157329,0.413807 0.143849,0.84418 0.590763,0.84418 0.200166,0 0.322567,-0.08752 0.662513,-0.473719 z m 23.810162,-4.408382 c 0.283761,-0.304611 0.669848,-0.612587 0.967831,-0.772023 0.435315,-0.232916 0.584835,-0.269243 1.226588,-0.298011 0.83562,-0.03746 1.521424,0.129833 2.21256,0.539714 0.738941,0.438233 0.876948,0.485167 1.148383,0.390545 0.287851,-0.100346 0.402869,-0.278933 0.402869,-0.625528 0,-0.327513 -0.333316,-0.631923 -1.130673,-1.032617 -0.859708,-0.432026 -1.606481,-0.582928 -2.710043,-0.547624 -0.86067,0.02754 -0.917853,0.04069 -1.598887,0.367731 -0.555759,0.266884 -0.831278,0.464159 -1.29271,0.92559 -0.535333,0.535333 -0.586416,0.614415 -0.586416,0.90783 0,0.252477 0.04496,0.356777 0.209606,0.48629 0.377815,0.297189 0.623559,0.224186 1.150892,-0.341897 z M 40.657494,33.272936 c 0.115653,-0.04397 0.388918,-0.275408 0.607255,-0.514304 0.470309,-0.514593 1.294132,-0.960108 1.916455,-1.036399 0.836632,-0.102564 1.868217,0.180294 2.77238,0.760181 0.648368,0.415832 1.186307,0.23967 1.186307,-0.388486 0,-0.356597 -0.132673,-0.503666 -0.83529,-0.925925 -0.620086,-0.372659 -1.546696,-0.661598 -2.331638,-0.72706 -1.34833,-0.112446 -2.513011,0.312515 -3.48776,1.272592 -0.316727,0.31196 -0.598255,0.66416 -0.628055,0.785715 -0.07398,0.301763 0.09488,0.670395 0.349894,0.763843 0.115915,0.04248 0.217374,0.08006 0.225464,0.08351 0.0081,0.0035 0.109334,-0.0297 0.224988,-0.07367 z M 30.237427,30.609063 c 0.837061,-0.874971 1.79023,-1.195939 2.963729,-0.998003 0.543165,0.09162 1.383464,0.444221 1.886696,0.791691 0.339328,0.234299 0.704154,0.216731 0.909068,-0.04377 0.373513,-0.474845 0.134356,-0.887777 -0.820206,-1.416183 -0.98812,-0.546984 -2.413236,-0.800788 -3.427079,-0.610343 -1.315738,0.247155 -2.906569,1.45318 -2.906569,2.2035 0,0.363678 0.233393,0.589492 0.609279,0.589492 0.254432,0 0.353259,-0.065 0.785082,-0.516381 z m 16.025986,-4.527442 c 0.319567,-0.330972 0.677626,-0.602499 1.022253,-0.775209 0.493611,-0.247373 0.582847,-0.265449 1.28615,-0.260539 0.884362,0.0062 1.609491,0.223958 2.323343,0.697786 0.256389,0.170181 0.535106,0.290495 0.672956,0.290495 0.556171,0 0.804537,-0.679192 0.398383,-1.089428 -0.299262,-0.302269 -1.103313,-0.737931 -1.763878,-0.955727 -0.54066,-0.178262 -0.780037,-0.210415 -1.591028,-0.21371 -0.797369,-0.0032 -1.033241,0.02529 -1.431925,0.173228 -0.969473,0.359727 -2.199861,1.410771 -2.312852,1.975724 -0.07121,0.356047 0.208539,0.666773 0.600297,0.666773 0.270008,0 0.360117,-0.05764 0.796301,-0.509393 z M 35.50716,23.264453 c 0.334609,-0.338955 0.714263,-0.629756 1.012618,-0.775626 0.44638,-0.218244 0.536587,-0.233042 1.392149,-0.228384 1.035964,0.0056 1.504232,0.141063 2.248452,0.650254 0.262702,0.179738 0.512651,0.286171 0.67683,0.288203 0.357408,0.0044 0.606801,-0.256764 0.606801,-0.635505 0,-0.235673 -0.05312,-0.336782 -0.274452,-0.522378 -0.379473,-0.318206 -0.869127,-0.582957 -1.536964,-0.831023 -0.821286,-0.305063 -2.261209,-0.360072 -3.0616,-0.116961 -0.933593,0.28357 -2.025118,1.115362 -2.392763,1.823394 -0.12499,0.240714 -0.03746,0.62003 0.177883,0.770862 0.345612,0.242076 0.579461,0.156172 1.151046,-0.422836 z"
     id="path6284" />
</svg>
